<svg xmlns="http://www.w3.org/2000/svg" data-name="Layer 1" viewBox="0 0 24 24" id="coffee-mug"><path d="M9.45,11a.49.49,0,0,0-.21,0l-.08,0L9,11a3.3,3.3,0,0,0-3.17,3.41v2.18A3.33,3.33,0,0,0,8.55,20a.49.49,0,0,0,.21,0l.08,0L9,20a3.3,3.3,0,0,0,3.17-3.41V14.41A3.33,3.33,0,0,0,9.45,11ZM8.53,18a4.09,4.09,0,0,0-.22.87,2.4,2.4,0,0,1-1.47-2.27V14.41A2.33,2.33,0,0,1,8.7,12a3.21,3.21,0,0,1-.17.63,3.87,3.87,0,0,0-.27,1.5,3.88,3.88,0,0,0,.27,1.5,3.33,3.33,0,0,1,0,2.33Zm2.64-1.41A2.33,2.33,0,0,1,9.3,19a3.22,3.22,0,0,1,.17-.63,4.32,4.32,0,0,0,0-3,2.9,2.9,0,0,1-.21-1.17A2.9,2.9,0,0,1,9.47,13a4.1,4.1,0,0,0,.22-.86,2.4,2.4,0,0,1,1.47,2.27ZM19.25,9h-2.5V7.5A1.5,1.5,0,0,0,15.25,6H2.55A1.3,1.3,0,0,0,1.38,7.88a3.52,3.52,0,0,1,.37,1.57V21.5A2.5,2.5,0,0,0,4.25,24h10a2.5,2.5,0,0,0,2.5-2.5V20h2.5a3.5,3.5,0,0,0,3.5-3.5v-4A3.5,3.5,0,0,0,19.25,9Zm-3.5,12.5a1.5,1.5,0,0,1-1.5,1.5h-10a1.5,1.5,0,0,1-1.5-1.5V9.44a4.52,4.52,0,0,0-.48-2A.3.3,0,0,1,2.55,7H15.25a.5.5,0,0,1,.5.5Zm1-9.5h2.5a.5.5,0,0,1,.5.5v4a.5.5,0,0,1-.5.5h-2.5Zm5,4.5a2.5,2.5,0,0,1-2.5,2.5h-2.5V18h2.5a1.5,1.5,0,0,0,1.5-1.5v-4a1.5,1.5,0,0,0-1.5-1.5h-2.5V10h2.5a2.5,2.5,0,0,1,2.5,2.5Zm-10-12a.5.5,0,1,0,1,0,.65.65,0,0,1,.13-.41,1.62,1.62,0,0,0,.27-.92,1.62,1.62,0,0,0-.27-.92.65.65,0,0,1-.13-.41.64.64,0,0,1,.13-.41A1.62,1.62,0,0,0,13.2.5a.5.5,0,0,0-1,0,.64.64,0,0,1-.13.41,1.62,1.62,0,0,0-.27.92,1.62,1.62,0,0,0,.27.92.65.65,0,0,1,.13.41.65.65,0,0,1-.13.41A1.62,1.62,0,0,0,11.8,4.5Zm-3,0a.5.5,0,0,0,1,0,.65.65,0,0,1,.13-.41,1.62,1.62,0,0,0,.27-.92,1.62,1.62,0,0,0-.27-.92.65.65,0,0,1-.13-.41.64.64,0,0,1,.13-.41A1.62,1.62,0,0,0,10.2.5a.5.5,0,1,0-1,0,.64.64,0,0,1-.13.41,1.62,1.62,0,0,0-.27.92,1.62,1.62,0,0,0,.27.92.65.65,0,0,1,.13.41.65.65,0,0,1-.13.41A1.62,1.62,0,0,0,8.8,4.5Zm-3,0a.5.5,0,0,0,1,0,.65.65,0,0,1,.13-.41,1.62,1.62,0,0,0,.27-.92,1.62,1.62,0,0,0-.27-.92.65.65,0,0,1-.13-.41.64.64,0,0,1,.13-.41A1.62,1.62,0,0,0,7.2.5a.5.5,0,0,0-1,0,.64.64,0,0,1-.13.41,1.62,1.62,0,0,0-.27.92,1.62,1.62,0,0,0,.27.92.65.65,0,0,1,.13.41.65.65,0,0,1-.13.41A1.62,1.62,0,0,0,5.8,4.5Z"></path></svg>