<svg xmlns="http://www.w3.org/2000/svg" data-name="Layer 1" viewBox="0 0 24 24" id="coffee"><path d="M14.8,4.5a.5.5,0,1,0,1,0,.64.64,0,0,1,.13-.41,1.62,1.62,0,0,0,.27-.92,1.62,1.62,0,0,0-.27-.92.64.64,0,0,1-.13-.41.64.64,0,0,1,.13-.41A1.62,1.62,0,0,0,16.2.5a.5.5,0,0,0-1,0,.64.64,0,0,1-.13.41,1.62,1.62,0,0,0-.27.92,1.62,1.62,0,0,0,.27.92.64.64,0,0,1,.13.41.64.64,0,0,1-.13.41A1.62,1.62,0,0,0,14.8,4.5Zm-3,0a.5.5,0,1,0,1,0,.64.64,0,0,1,.13-.41,1.62,1.62,0,0,0,.27-.92,1.62,1.62,0,0,0-.27-.92.64.64,0,0,1-.13-.41.64.64,0,0,1,.13-.41A1.62,1.62,0,0,0,13.2.5a.5.5,0,0,0-1,0,.64.64,0,0,1-.13.41,1.62,1.62,0,0,0-.27.92,1.62,1.62,0,0,0,.27.92.64.64,0,0,1,.13.41.64.64,0,0,1-.13.41A1.62,1.62,0,0,0,11.8,4.5Zm-3,0a.5.5,0,0,0,1,0,.64.64,0,0,1,.13-.41,1.62,1.62,0,0,0,.27-.92,1.62,1.62,0,0,0-.27-.92.64.64,0,0,1-.13-.41.64.64,0,0,1,.13-.41A1.62,1.62,0,0,0,10.2.5a.5.5,0,1,0-1,0,.64.64,0,0,1-.13.41,1.62,1.62,0,0,0-.27.92,1.62,1.62,0,0,0,.27.92.64.64,0,0,1,.13.41.64.64,0,0,1-.13.41A1.62,1.62,0,0,0,8.8,4.5ZM23.5,19h-6a8.78,8.78,0,0,0,1.38-1.42,7.35,7.35,0,0,0,2.85-1.77,7.45,7.45,0,0,0,2.2-5.31A1.5,1.5,0,0,0,22.44,9H20.9L21,7.54A.5.5,0,0,0,20.5,7H3.5a.5.5,0,0,0-.5.53l.38,5.54A8.57,8.57,0,0,0,6.5,19H.5a.5.5,0,0,0-.5.5A4.5,4.5,0,0,0,4.5,24h15A4.5,4.5,0,0,0,24,19.5.5.5,0,0,0,23.5,19Zm-2.88-5.94L20.83,10h1.61a.5.5,0,0,1,.5.5,6.51,6.51,0,0,1-3.15,5.57A8.7,8.7,0,0,0,20.62,13.06ZM4.38,13,4,8H20l-.34,5a7.53,7.53,0,0,1-3.86,6H8.24A7.58,7.58,0,0,1,4.38,13ZM19.5,23H4.5A3.51,3.51,0,0,1,1,20H23A3.51,3.51,0,0,1,19.5,23Z"></path></svg>