<svg xmlns="http://www.w3.org/2000/svg" data-name="Layer 1" viewBox="0 0 24 24" id="coffee-bottle"><path d="M16.72,9.3l-1-3.92-.65-2.91a.48.48,0,0,1,0-.08l.11-.22A1.5,1.5,0,0,0,13.88,0H10.12A1.5,1.5,0,0,0,8.78,2.17l.11.22a.48.48,0,0,1,0,.09l-.65,2.9-1,3.93A9.52,9.52,0,0,0,7,11.61V21.5A2.5,2.5,0,0,0,9.5,24h5A2.5,2.5,0,0,0,17,21.5V11.61A9.52,9.52,0,0,0,16.72,9.3Zm-7-8.07A.49.49,0,0,1,10.12,1h3.76a.5.5,0,0,1,.45.72l-.11.22s0,0,0,.05H9.8s0,0,0-.05l-.11-.22A.49.49,0,0,1,9.69,1.24ZM9.89,3h4.22l.5,2H9.39ZM16,21.5A1.5,1.5,0,0,1,14.5,23h-5A1.5,1.5,0,0,1,8,21.5V11.61a8.54,8.54,0,0,1,.25-2.06L9.14,6h5.72l.89,3.55h0A8.46,8.46,0,0,1,16,11.61Z"></path></svg>