<svg xmlns="http://www.w3.org/2000/svg" data-name="Layer 1" viewBox="0 0 24 24" id="coffee-machine"><path d="M9.5,3h5a.5.5,0,0,0,0-1h-5a.5.5,0,0,0,0,1Zm1,4h3a1.5,1.5,0,0,0,0-3h-3a1.5,1.5,0,0,0,0,3Zm0-2h3a.5.5,0,0,1,0,1h-3a.5.5,0,0,1,0-1ZM20,0H4A1.5,1.5,0,0,0,2.5,1.5v21A1.5,1.5,0,0,0,4,24H20a1.5,1.5,0,0,0,1.5-1.5V1.5A1.5,1.5,0,0,0,20,0ZM18.5,10v1h-1V10h1ZM6.5,1h11V9H6.5Zm8,9v1.5a.5.5,0,0,1-.5.5H12a.5.5,0,0,1-.5-.5V10ZM6.45,11.72a.5.5,0,0,0,.05-.22V10h1v1.5a.5.5,0,0,0,.05.22L8.19,13H5.81ZM3.5,1.5A.5.5,0,0,1,4,1H5.5V9h-2ZM5.5,23H4a.5.5,0,0,1-.5-.5V21h2Zm12,0H6.5V21h11Zm3-.5a.5.5,0,0,1-.5.5H18.5V21h2Zm0-2.5H3.5V10h2v1.38l-.95,1.89A.5.5,0,0,0,5,14H9a.5.5,0,0,0,.45-.72L8.5,11.38V10h2v1.5a1.5,1.5,0,0,0,1,1.41v.59a.5.5,0,0,0,1,0V13h1v.5a.5.5,0,0,0,1,0v-.59a1.5,1.5,0,0,0,1-1.41V10h1v1.5a.5.5,0,0,0,.5.5h.5v2.5a.5.5,0,0,0,1,0V12H19a.5.5,0,0,0,.5-.5V10h1Zm0-11h-2V1H20a.5.5,0,0,1,.5.5Z"></path></svg>